<svg width="486" height="404" viewBox="0 0 486 404" fill="none" xmlns="http://www.w3.org/2000/svg">
<path d="M15.4766 26C15.4766 27.1 14.5766 28 13.4766 28C12.3766 28 11.4766 27.1 11.4766 26C11.4766 24.9 12.3766 24 13.4766 24C14.5766 24 15.4766 24.9 15.4766 26ZM13.4766 18C12.3766 18 11.4766 18.9 11.4766 20C11.4766 21.1 12.3766 22 13.4766 22C14.5766 22 15.4766 21.1 15.4766 20C15.4766 18.9 14.5766 18 13.4766 18ZM13.4766 12C12.3766 12 11.4766 12.9 11.4766 14C11.4766 15.1 12.3766 16 13.4766 16C14.5766 16 15.4766 15.1 15.4766 14C15.4766 12.9 14.5766 12 13.4766 12ZM19.4766 16C20.5766 16 21.4766 15.1 21.4766 14C21.4766 12.9 20.5766 12 19.4766 12C18.3766 12 17.4766 12.9 17.4766 14C17.4766 15.1 18.3766 16 19.4766 16ZM19.4766 18C18.3766 18 17.4766 18.9 17.4766 20C17.4766 21.1 18.3766 22 19.4766 22C20.5766 22 21.4766 21.1 21.4766 20C21.4766 18.9 20.5766 18 19.4766 18ZM19.4766 24C18.3766 24 17.4766 24.9 17.4766 26C17.4766 27.1 18.3766 28 19.4766 28C20.5766 28 21.4766 27.1 21.4766 26C21.4766 24.9 20.5766 24 19.4766 24Z" fill="#051938"/>
<path d="M42.0166 26V12H44.0166V26H42.0166ZM52.3147 14.76C54.4947 14.76 56.0547 16.28 56.0547 18.56V26H54.1347V18.92C54.1347 17.22 53.1947 16.32 51.7947 16.32C50.0347 16.32 48.7747 17.74 48.7747 20.3V26H46.8547V15H48.7147V17.52H48.7747C49.0947 15.74 50.6147 14.76 52.3147 14.76ZM63.22 21.8L65.56 15H67.62L63.4 26H61.22L57.1 15H59.22L61.52 21.78C61.8 22.62 62.1 23.6 62.34 24.64H62.4C62.64 23.6 62.94 22.62 63.22 21.8ZM78.3878 20.64V21.06L70.1478 21.06C70.3278 23.34 71.5478 24.72 73.4278 24.72C74.8278 24.72 75.9878 23.98 76.1678 22.88H78.1678C77.8278 25 75.8078 26.24 73.4278 26.24C70.2478 26.24 68.1678 24.02 68.1678 20.5C68.1678 17.24 70.1278 14.76 73.4278 14.76C76.7878 14.76 78.3878 17.24 78.3878 20.64ZM73.4278 16.28C71.6678 16.28 70.4278 17.52 70.1678 19.66H76.3678C76.2678 17.46 75.1278 16.28 73.4278 16.28ZM79.7889 22.3H81.7489C81.7889 24.04 82.8289 24.78 84.5689 24.78C86.1689 24.78 87.1489 24.24 87.1489 23.12C87.1489 21.74 85.6689 21.44 84.2289 21.22C81.9089 20.84 80.0289 20.18 80.0289 17.96C80.0289 15.74 82.0089 14.76 84.4289 14.76C87.1689 14.76 88.7889 16.06 88.8089 18.38H86.8689C86.8089 16.76 85.9489 16.22 84.3689 16.22C82.7289 16.22 81.9489 16.74 81.9489 17.76C81.9489 18.96 83.0289 19.22 84.6689 19.46C86.7089 19.78 89.0689 20.34 89.0689 22.88C89.0689 25.14 87.2489 26.24 84.5489 26.24C81.7489 26.24 79.8089 24.96 79.7889 22.3ZM96.1934 15V16.52H93.7534V22.94C93.7534 24.2 94.2734 24.64 95.1134 24.64C95.4734 24.64 95.8534 24.56 96.1934 24.4V25.96C95.8534 26.08 95.4134 26.18 94.8334 26.18C93.0534 26.18 91.8334 25.26 91.8334 23.12V16.52H90.2734V15H91.8334V12.4H93.7534V15H96.1934ZM110.541 14.76C112.541 14.76 114.121 16.18 114.121 18.46V26H112.201V18.66C112.201 17.3 111.321 16.32 109.961 16.32C108.281 16.32 107.141 17.8 107.141 20.38V26H105.221V18.66C105.221 17.3 104.321 16.32 103.001 16.32C101.281 16.32 100.161 17.98 100.161 20.38V26H98.2414V15H100.101V17.52H100.161C100.481 15.7 102.021 14.76 103.581 14.76C105.221 14.76 106.661 15.78 107.041 17.5H107.081C107.561 15.54 109.041 14.76 110.541 14.76ZM126.259 20.64V21.06H118.019C118.199 23.34 119.419 24.72 121.299 24.72C122.699 24.72 123.859 23.98 124.039 22.88H126.039C125.699 25 123.679 26.24 121.299 26.24C118.119 26.24 116.039 24.02 116.039 20.5C116.039 17.24 117.999 14.76 121.299 14.76C124.659 14.76 126.259 17.24 126.259 20.64ZM121.299 16.28C119.539 16.28 118.299 17.52 118.039 19.66H124.239C124.139 17.46 122.999 16.28 121.299 16.28ZM133.76 14.76C135.94 14.76 137.5 16.28 137.5 18.56V26H135.58V18.92C135.58 17.22 134.64 16.32 133.24 16.32C131.48 16.32 130.22 17.74 130.22 20.3V26H128.3V15H130.16V17.52H130.22C130.54 15.74 132.06 14.76 133.76 14.76ZM144.787 15V16.52L142.347 16.52V22.94C142.347 24.2 142.867 24.64 143.707 24.64C144.067 24.64 144.447 24.56 144.787 24.4V25.96C144.447 26.08 144.007 26.18 143.427 26.18C141.647 26.18 140.427 25.26 140.427 23.12V16.52H138.867V15H140.427V12.4H142.347V15L144.787 15ZM146.195 22.3H148.155C148.195 24.04 149.235 24.78 150.975 24.78C152.575 24.78 153.555 24.24 153.555 23.12C153.555 21.74 152.075 21.44 150.635 21.22C148.315 20.84 146.435 20.18 146.435 17.96C146.435 15.74 148.415 14.76 150.835 14.76C153.575 14.76 155.195 16.06 155.215 18.38L153.275 18.38C153.215 16.76 152.355 16.22 150.775 16.22C149.135 16.22 148.355 16.74 148.355 17.76C148.355 18.96 149.435 19.22 151.075 19.46C153.115 19.78 155.475 20.34 155.475 22.88C155.475 25.14 153.655 26.24 150.955 26.24C148.155 26.24 146.215 24.96 146.195 22.3Z" fill="#051938"/>
<g clip-path="url(#clip0_7_16659)">
<rect width="453.5" height="347" transform="translate(16.4766 57)" fill="white"/>
<g clip-path="url(#clip1_7_16659)">
<rect width="453.5" height="285" transform="translate(16.4766 57)" fill="white"/>
<path d="M20.2777 69.1193C19.9197 69.1136 19.5618 69.0455 19.2038 68.9148C18.8459 68.7841 18.5192 68.5639 18.2237 68.2543C17.9283 67.9418 17.6911 67.5199 17.5121 66.9886C17.3331 66.4545 17.2436 65.7841 17.2436 64.9773C17.2436 64.2045 17.3161 63.5199 17.4609 62.9233C17.6058 62.3239 17.8161 61.8196 18.0916 61.4105C18.3672 60.9986 18.6996 60.6861 19.0888 60.473C19.4808 60.2599 19.9226 60.1534 20.4141 60.1534C20.9027 60.1534 21.3374 60.2514 21.718 60.4474C22.1016 60.6406 22.4141 60.9105 22.6555 61.2571C22.897 61.6037 23.0533 62.0028 23.1243 62.4545H22.0845C21.9879 62.0625 21.8004 61.7372 21.522 61.4787C21.2436 61.2202 20.8743 61.0909 20.4141 61.0909C19.7379 61.0909 19.2053 61.3849 18.8161 61.973C18.4297 62.5611 18.2351 63.3864 18.2322 64.4489H18.3004C18.4595 64.2074 18.6484 64.0014 18.8672 63.831C19.0888 63.6577 19.3331 63.5241 19.6001 63.4304C19.8672 63.3366 20.1499 63.2898 20.4482 63.2898C20.9482 63.2898 21.4055 63.4148 21.8203 63.6648C22.2351 63.9119 22.5675 64.2543 22.8175 64.6918C23.0675 65.1264 23.1925 65.625 23.1925 66.1875C23.1925 66.7273 23.0717 67.2216 22.8303 67.6705C22.5888 68.1165 22.2493 68.4716 21.8118 68.7358C21.3771 68.9972 20.8658 69.125 20.2777 69.1193ZM20.2777 68.1818C20.6357 68.1818 20.9567 68.0923 21.2408 67.9134C21.5277 67.7344 21.7536 67.4943 21.9183 67.1932C22.0859 66.892 22.1697 66.5568 22.1697 66.1875C22.1697 65.8267 22.0888 65.4986 21.9268 65.2031C21.7678 64.9048 21.5476 64.6676 21.2663 64.4915C20.9879 64.3153 20.6697 64.2273 20.3118 64.2273C20.0419 64.2273 19.7905 64.2812 19.5575 64.3892C19.3246 64.4943 19.12 64.6392 18.9439 64.8239C18.7706 65.0085 18.6342 65.2202 18.5348 65.4588C18.4354 65.6946 18.3857 65.9432 18.3857 66.2045C18.3857 66.5511 18.4666 66.875 18.6286 67.1761C18.7933 67.4773 19.0178 67.7202 19.3018 67.9048C19.5888 68.0895 19.9141 68.1818 20.2777 68.1818ZM27.7148 69.1193C27.0728 69.1193 26.5259 68.9446 26.0742 68.5952C25.6225 68.2429 25.2773 67.733 25.0387 67.0653C24.8001 66.3949 24.6808 65.5852 24.6808 64.6364C24.6808 63.6932 24.8001 62.8878 25.0387 62.2202C25.2802 61.5497 25.6268 61.0384 26.0785 60.6861C26.533 60.331 27.0785 60.1534 27.7148 60.1534C28.3512 60.1534 28.8952 60.331 29.3469 60.6861C29.8015 61.0384 30.1481 61.5497 30.3867 62.2202C30.6282 62.8878 30.7489 63.6932 30.7489 64.6364C30.7489 65.5852 30.6296 66.3949 30.391 67.0653C30.1523 67.733 29.8072 68.2429 29.3555 68.5952C28.9038 68.9446 28.3569 69.1193 27.7148 69.1193ZM27.7148 68.1818C28.3512 68.1818 28.8455 67.875 29.1978 67.2614C29.5501 66.6477 29.7262 65.7727 29.7262 64.6364C29.7262 63.8807 29.6452 63.2372 29.4833 62.706C29.3242 62.1747 29.0941 61.7699 28.793 61.4915C28.4947 61.2131 28.1353 61.0739 27.7148 61.0739C27.0842 61.0739 26.5913 61.3849 26.2362 62.0071C25.881 62.6264 25.7035 63.5028 25.7035 64.6364C25.7035 65.392 25.783 66.0341 25.9421 66.5625C26.1012 67.0909 26.3299 67.4929 26.6282 67.7685C26.9293 68.044 27.2915 68.1818 27.7148 68.1818Z" fill="black"/>
<path d="M17.38 158.942V158.175L20.2607 155.022C20.5987 154.653 20.8771 154.332 21.0959 154.059C21.3146 153.783 21.4766 153.525 21.5817 153.283C21.6896 153.039 21.7436 152.783 21.7436 152.516C21.7436 152.209 21.6697 151.944 21.522 151.719C21.3771 151.495 21.1783 151.322 20.9254 151.199C20.6726 151.077 20.3885 151.016 20.0732 151.016C19.7379 151.016 19.4453 151.086 19.1953 151.225C18.9482 151.361 18.7564 151.553 18.62 151.8C18.4865 152.047 18.4197 152.337 18.4197 152.67H17.4141C17.4141 152.158 17.532 151.709 17.7678 151.323C18.0036 150.937 18.3246 150.636 18.7308 150.42C19.1399 150.204 19.5987 150.096 20.1072 150.096C20.6186 150.096 21.0717 150.204 21.4666 150.42C21.8615 150.636 22.1712 150.927 22.3956 151.293C22.62 151.66 22.7322 152.067 22.7322 152.516C22.7322 152.837 22.674 153.151 22.5575 153.458C22.4439 153.762 22.245 154.101 21.9609 154.476C21.6797 154.849 21.2891 155.303 20.7891 155.84L18.8288 157.937V158.005H22.8857V158.942H17.38ZM27.4922 159.062C26.8501 159.062 26.3033 158.887 25.8516 158.538C25.3999 158.185 25.0547 157.675 24.8161 157.008C24.5774 156.337 24.4581 155.528 24.4581 154.579C24.4581 153.636 24.5774 152.83 24.8161 152.163C25.0575 151.492 25.4041 150.981 25.8558 150.628C26.3104 150.273 26.8558 150.096 27.4922 150.096C28.1286 150.096 28.6726 150.273 29.1243 150.628C29.5788 150.981 29.9254 151.492 30.1641 152.163C30.4055 152.83 30.5263 153.636 30.5263 154.579C30.5263 155.528 30.407 156.337 30.1683 157.008C29.9297 157.675 29.5845 158.185 29.1328 158.538C28.6811 158.887 28.1342 159.062 27.4922 159.062ZM27.4922 158.124C28.1286 158.124 28.6229 157.817 28.9751 157.204C29.3274 156.59 29.5036 155.715 29.5036 154.579C29.5036 153.823 29.4226 153.18 29.2607 152.648C29.1016 152.117 28.8714 151.712 28.5703 151.434C28.272 151.155 27.9126 151.016 27.4922 151.016C26.8615 151.016 26.3686 151.327 26.0135 151.949C25.6584 152.569 25.4808 153.445 25.4808 154.579C25.4808 155.334 25.5604 155.976 25.7195 156.505C25.8786 157.033 26.1072 157.435 26.4055 157.711C26.7067 157.986 27.0689 158.124 27.4922 158.124Z" fill="black"/>
<path d="M21.147 244.052V244.99H17.3288V244.052H21.147ZM22.4893 248.885V248.118L25.37 244.964C25.7081 244.595 25.9865 244.274 26.2053 244.001C26.424 243.726 26.5859 243.467 26.6911 243.226C26.799 242.981 26.853 242.726 26.853 242.459C26.853 242.152 26.7791 241.886 26.6314 241.662C26.4865 241.437 26.2876 241.264 26.0348 241.142C25.782 241.02 25.4979 240.959 25.1825 240.959C24.8473 240.959 24.5547 241.028 24.3047 241.167C24.0575 241.304 23.8658 241.496 23.7294 241.743C23.5959 241.99 23.5291 242.28 23.5291 242.612H22.5234C22.5234 242.101 22.6413 241.652 22.8771 241.265C23.1129 240.879 23.4339 240.578 23.8402 240.362C24.2493 240.146 24.7081 240.038 25.2166 240.038C25.728 240.038 26.1811 240.146 26.576 240.362C26.9709 240.578 27.2805 240.869 27.505 241.236C27.7294 241.602 27.8416 242.01 27.8416 242.459C27.8416 242.78 27.7834 243.094 27.6669 243.4C27.5533 243.704 27.3544 244.044 27.0703 244.419C26.7891 244.791 26.3984 245.246 25.8984 245.782L23.9382 247.879V247.947H27.995V248.885H22.4893ZM32.6016 249.004C31.9595 249.004 31.4126 248.829 30.9609 248.48C30.5092 248.128 30.1641 247.618 29.9254 246.95C29.6868 246.28 29.5675 245.47 29.5675 244.521C29.5675 243.578 29.6868 242.773 29.9254 242.105C30.1669 241.434 30.5135 240.923 30.9652 240.571C31.4197 240.216 31.9652 240.038 32.6016 240.038C33.2379 240.038 33.782 240.216 34.2337 240.571C34.6882 240.923 35.0348 241.434 35.2734 242.105C35.5149 242.773 35.6357 243.578 35.6357 244.521C35.6357 245.47 35.5163 246.28 35.2777 246.95C35.0391 247.618 34.6939 248.128 34.2422 248.48C33.7905 248.829 33.2436 249.004 32.6016 249.004ZM32.6016 248.067C33.2379 248.067 33.7322 247.76 34.0845 247.146C34.4368 246.532 34.6129 245.657 34.6129 244.521C34.6129 243.765 34.532 243.122 34.37 242.591C34.2109 242.059 33.9808 241.655 33.6797 241.376C33.3814 241.098 33.022 240.959 32.6016 240.959C31.9709 240.959 31.478 241.27 31.1229 241.892C30.7678 242.511 30.5902 243.388 30.5902 244.521C30.5902 245.277 30.6697 245.919 30.8288 246.447C30.9879 246.976 31.2166 247.378 31.5149 247.653C31.8161 247.929 32.1783 248.067 32.6016 248.067Z" fill="black"/>
<path d="M21.147 333.994V334.931H17.3288V333.994H21.147ZM25.7972 338.945C25.4393 338.94 25.0813 338.872 24.7234 338.741C24.3654 338.61 24.0387 338.39 23.7433 338.08C23.4478 337.768 23.2106 337.346 23.0316 336.815C22.8526 336.281 22.7631 335.61 22.7631 334.803C22.7631 334.031 22.8356 333.346 22.9805 332.749C23.1254 332.15 23.3356 331.646 23.6112 331.237C23.8867 330.825 24.2191 330.512 24.6083 330.299C25.0004 330.086 25.4421 329.98 25.9336 329.98C26.4222 329.98 26.8569 330.078 27.2376 330.274C27.6211 330.467 27.9336 330.737 28.1751 331.083C28.4165 331.43 28.5728 331.829 28.6438 332.281H27.604C27.5075 331.889 27.32 331.563 27.0415 331.305C26.7631 331.046 26.3938 330.917 25.9336 330.917C25.2575 330.917 24.7248 331.211 24.3356 331.799C23.9492 332.387 23.7546 333.213 23.7518 334.275H23.82C23.979 334.034 24.168 333.828 24.3867 333.657C24.6083 333.484 24.8526 333.35 25.1197 333.257C25.3867 333.163 25.6694 333.116 25.9677 333.116C26.4677 333.116 26.9251 333.241 27.3398 333.491C27.7546 333.738 28.087 334.08 28.337 334.518C28.587 334.953 28.712 335.451 28.712 336.014C28.712 336.553 28.5913 337.048 28.3498 337.497C28.1083 337.943 27.7688 338.298 27.3313 338.562C26.8967 338.823 26.3853 338.951 25.7972 338.945ZM25.7972 338.008C26.1552 338.008 26.4762 337.919 26.7603 337.74C27.0472 337.561 27.2731 337.32 27.4379 337.019C27.6055 336.718 27.6893 336.383 27.6893 336.014C27.6893 335.653 27.6083 335.325 27.4464 335.029C27.2873 334.731 27.0671 334.494 26.7859 334.318C26.5075 334.142 26.1893 334.053 25.8313 334.053C25.5614 334.053 25.31 334.107 25.0771 334.215C24.8441 334.32 24.6396 334.465 24.4634 334.65C24.2901 334.835 24.1538 335.046 24.0543 335.285C23.9549 335.521 23.9052 335.769 23.9052 336.031C23.9052 336.377 23.9862 336.701 24.1481 337.002C24.3129 337.303 24.5373 337.546 24.8214 337.731C25.1083 337.916 25.4336 338.008 25.7972 338.008ZM33.2344 338.945C32.5923 338.945 32.0455 338.771 31.5938 338.421C31.142 338.069 30.7969 337.559 30.5582 336.892C30.3196 336.221 30.2003 335.411 30.2003 334.463C30.2003 333.519 30.3196 332.714 30.5582 332.046C30.7997 331.376 31.1463 330.865 31.598 330.512C32.0526 330.157 32.598 329.98 33.2344 329.98C33.8707 329.98 34.4148 330.157 34.8665 330.512C35.321 330.865 35.6676 331.376 35.9062 332.046C36.1477 332.714 36.2685 333.519 36.2685 334.463C36.2685 335.411 36.1491 336.221 35.9105 336.892C35.6719 337.559 35.3267 338.069 34.875 338.421C34.4233 338.771 33.8764 338.945 33.2344 338.945ZM33.2344 338.008C33.8707 338.008 34.3651 337.701 34.7173 337.088C35.0696 336.474 35.2457 335.599 35.2457 334.463C35.2457 333.707 35.1648 333.063 35.0028 332.532C34.8438 332.001 34.6136 331.596 34.3125 331.318C34.0142 331.039 33.6548 330.9 33.2344 330.9C32.6037 330.9 32.1108 331.211 31.7557 331.833C31.4006 332.453 31.223 333.329 31.223 334.463C31.223 335.218 31.3026 335.86 31.4616 336.389C31.6207 336.917 31.8494 337.319 32.1477 337.595C32.4489 337.87 32.8111 338.008 33.2344 338.008Z" fill="black"/>
<g clip-path="url(#clip2_7_16659)">
<rect width="424.5" height="285" transform="translate(45.4766 57)" fill="white"/>
<rect x="45.9766" y="57.5" width="423.5" height="272" stroke="#F1F1F1"/>
<path d="M45.4766 148H469.977" stroke="#F1F1F1"/>
<path d="M45.4766 239H469.977" stroke="#F1F1F1"/>
<path d="M116.228 57L116.228 327.156" stroke="#F1F1F1"/>
<path d="M186.976 57L186.976 327.156" stroke="#F1F1F1"/>
<path d="M257.727 57L257.727 327.156" stroke="#F1F1F1"/>
<path d="M328.478 57L328.478 327.156" stroke="#F1F1F1"/>
<path d="M399.226 57L399.226 327.156" stroke="#F1F1F1"/>
<rect x="164.393" y="206.105" width="21.5833" height="120.457" rx="10.7917" fill="#FFA5CB" stroke="#F765A3" stroke-width="2"/>
<rect x="93.6436" y="206.105" width="21.5833" height="120.457" rx="10.7917" fill="#FFA5CB" stroke="#F765A3" stroke-width="2"/>
<rect x="70.0605" y="248.823" width="21.5833" height="77.7394" rx="3" fill="#E697FF" stroke="#A155B9" stroke-width="2"/>
<rect x="140.811" y="280.148" width="21.5833" height="46.4132" rx="3" fill="#E697FF" stroke="#A155B9" stroke-width="2"/>
<rect x="211.56" y="143.451" width="21.5833" height="183.109" rx="3" fill="#E697FF" stroke="#A155B9" stroke-width="2"/>
<rect x="282.311" y="294.387" width="21.5833" height="32.174" rx="3" fill="#E697FF" stroke="#A155B9" stroke-width="2"/>
<rect x="235.143" y="294.387" width="21.5833" height="32.174" rx="3" fill="#FFA5CB" stroke="#F765A3" stroke-width="2"/>
<rect x="353.061" y="206.105" width="21.5833" height="120.457" rx="3" fill="#E697FF" stroke="#A155B9" stroke-width="2"/>
<rect x="376.643" y="157.689" width="21.5833" height="168.87" rx="3" fill="#FFA5CB" stroke="#F765A3" stroke-width="2"/>
<rect x="423.81" y="257.365" width="21.5833" height="69.1959" rx="3" fill="#E697FF" stroke="#A155B9" stroke-width="2"/>
<rect x="46.4766" y="186.169" width="21.5833" height="140.392" rx="1" fill="#7987FF" stroke="#165BAA" stroke-width="2"/>
<rect x="187.976" y="174.78" width="21.5833" height="151.783" rx="6" fill="#7987FF" stroke="#165BAA" stroke-width="2"/>
<rect x="117.228" y="132.06" width="21.5833" height="194.501" rx="6" fill="#7987FF" stroke="#165BAA" stroke-width="2"/>
<rect x="258.727" y="208.952" width="21.5833" height="117.609" rx="10.7917" fill="#7987FF" stroke="#165BAA" stroke-width="2"/>
<rect x="329.478" y="280.148" width="21.5833" height="46.4132" rx="10.7917" fill="#7987FF" stroke="#165BAA" stroke-width="2"/>
<rect x="305.894" y="248.823" width="21.5833" height="77.7394" rx="10.7917" fill="#FFA5CB" stroke="#F765A3" stroke-width="2"/>
<rect x="400.226" y="220.344" width="21.5833" height="106.218" rx="10.7917" fill="#7987FF" stroke="#165BAA" stroke-width="2"/>
<rect x="447.393" y="220.344" width="21.5833" height="106.218" rx="10.7917" fill="#FFA5CB" stroke="#F765A3" stroke-width="2"/>
<path d="M76.0593 332.727H76.94V337.926C76.94 338.39 76.8548 338.784 76.6843 339.109C76.5138 339.433 76.2736 339.679 75.9634 339.847C75.6533 340.015 75.2875 340.099 74.8661 340.099C74.4684 340.099 74.1145 340.027 73.8043 339.883C73.4942 339.736 73.2504 339.528 73.0728 339.258C72.8952 338.988 72.8065 338.667 72.8065 338.295H73.6729C73.6729 338.501 73.7238 338.681 73.8256 338.835C73.9298 338.987 74.0719 339.105 74.2518 339.19C74.4317 339.276 74.6365 339.318 74.8661 339.318C75.1194 339.318 75.3349 339.265 75.5124 339.158C75.69 339.052 75.8249 338.896 75.9173 338.69C76.012 338.481 76.0593 338.227 76.0593 337.926V332.727ZM80.1964 340.128C79.8507 340.128 79.5371 340.063 79.2553 339.933C78.9736 339.8 78.7499 339.609 78.5842 339.361C78.4184 339.11 78.3356 338.807 78.3356 338.452C78.3356 338.139 78.3971 337.886 78.5202 337.692C78.6433 337.495 78.8079 337.341 79.0138 337.23C79.2198 337.119 79.4471 337.036 79.6957 336.982C79.9466 336.925 80.1987 336.88 80.4521 336.847C80.7835 336.804 81.0522 336.772 81.2582 336.751C81.4665 336.727 81.618 336.688 81.7127 336.634C81.8098 336.579 81.8583 336.484 81.8583 336.349V336.321C81.8583 335.971 81.7624 335.698 81.5707 335.504C81.3813 335.31 81.0936 335.213 80.7077 335.213C80.3076 335.213 79.994 335.301 79.7667 335.476C79.5394 335.651 79.3796 335.838 79.2873 336.037L78.4918 335.753C78.6339 335.421 78.8233 335.163 79.06 334.979C79.2991 334.792 79.5595 334.661 79.8413 334.588C80.1254 334.512 80.4047 334.474 80.6793 334.474C80.8545 334.474 81.0558 334.496 81.283 334.538C81.5127 334.579 81.734 334.663 81.9471 334.79C82.1625 334.918 82.3413 335.111 82.4833 335.369C82.6254 335.627 82.6964 335.973 82.6964 336.406V340H81.8583V339.261H81.8157C81.7589 339.38 81.6642 339.506 81.5316 339.641C81.399 339.776 81.2227 339.891 81.0025 339.986C80.7823 340.08 80.5136 340.128 80.1964 340.128ZM80.3242 339.375C80.6557 339.375 80.935 339.31 81.1623 339.18C81.3919 339.049 81.5647 338.881 81.6808 338.675C81.7991 338.469 81.8583 338.253 81.8583 338.026V337.259C81.8228 337.301 81.7447 337.34 81.6239 337.376C81.5056 337.409 81.3683 337.438 81.212 337.464C81.0581 337.488 80.9078 337.509 80.761 337.528C80.6166 337.545 80.4994 337.559 80.4094 337.571C80.1916 337.599 79.988 337.646 79.7987 337.71C79.6116 337.771 79.4601 337.865 79.3441 337.99C79.2305 338.113 79.1737 338.281 79.1737 338.494C79.1737 338.786 79.2814 339.006 79.4968 339.155C79.7146 339.302 79.9904 339.375 80.3242 339.375ZM85.0641 336.719V340H84.226V334.545H85.0357V335.398H85.1067C85.2346 335.121 85.4287 334.898 85.6891 334.73C85.9495 334.56 86.2857 334.474 86.6976 334.474C87.0669 334.474 87.3901 334.55 87.6671 334.702C87.9441 334.851 88.1595 335.078 88.3134 335.384C88.4673 335.687 88.5442 336.07 88.5442 336.534V340H87.7061V336.591C87.7061 336.162 87.5949 335.829 87.3723 335.589C87.1498 335.348 86.8444 335.227 86.4561 335.227C86.1886 335.227 85.9495 335.285 85.7388 335.401C85.5305 335.517 85.3659 335.687 85.2452 335.909C85.1245 336.132 85.0641 336.402 85.0641 336.719Z" fill="black"/>
<path d="M143.732 340V332.727H148.093V333.509H144.613V335.966H147.766V336.747H144.613V340H143.732ZM151.374 340.114C150.849 340.114 150.395 339.998 150.014 339.766C149.635 339.531 149.343 339.205 149.137 338.786C148.933 338.364 148.832 337.874 148.832 337.315C148.832 336.757 148.933 336.264 149.137 335.838C149.343 335.41 149.629 335.076 149.996 334.837C150.366 334.595 150.797 334.474 151.289 334.474C151.573 334.474 151.854 334.522 152.131 334.616C152.408 334.711 152.66 334.865 152.887 335.078C153.114 335.289 153.295 335.568 153.43 335.916C153.565 336.264 153.633 336.693 153.633 337.202V337.557H149.428V336.832H152.781C152.781 336.525 152.719 336.25 152.596 336.009C152.475 335.767 152.302 335.576 152.077 335.437C151.855 335.297 151.592 335.227 151.289 335.227C150.955 335.227 150.666 335.31 150.423 335.476C150.181 335.639 149.995 335.852 149.865 336.115C149.735 336.378 149.67 336.66 149.67 336.96V337.443C149.67 337.855 149.741 338.204 149.883 338.491C150.027 338.775 150.227 338.991 150.483 339.141C150.739 339.287 151.036 339.361 151.374 339.361C151.594 339.361 151.793 339.33 151.971 339.268C152.151 339.205 152.306 339.11 152.436 338.984C152.566 338.857 152.667 338.698 152.738 338.509L153.548 338.736C153.462 339.01 153.319 339.252 153.118 339.46C152.917 339.666 152.668 339.827 152.372 339.943C152.076 340.057 151.744 340.114 151.374 340.114ZM155.021 340V332.727H155.859V335.412H155.93C155.992 335.317 156.077 335.196 156.186 335.05C156.297 334.901 156.456 334.768 156.662 334.652C156.87 334.534 157.152 334.474 157.507 334.474C157.966 334.474 158.371 334.589 158.722 334.819C159.072 335.049 159.345 335.374 159.542 335.795C159.738 336.217 159.837 336.714 159.837 337.287C159.837 337.865 159.738 338.365 159.542 338.789C159.345 339.21 159.073 339.537 158.725 339.769C158.377 339.999 157.976 340.114 157.521 340.114C157.171 340.114 156.89 340.056 156.68 339.94C156.469 339.821 156.307 339.687 156.193 339.538C156.08 339.387 155.992 339.261 155.93 339.162H155.831V340H155.021ZM155.845 337.273C155.845 337.685 155.906 338.048 156.026 338.363C156.147 338.675 156.323 338.92 156.555 339.098C156.787 339.273 157.071 339.361 157.408 339.361C157.758 339.361 158.05 339.268 158.285 339.084C158.522 338.897 158.699 338.646 158.817 338.331C158.938 338.014 158.999 337.661 158.999 337.273C158.999 336.889 158.939 336.544 158.821 336.236C158.705 335.926 158.529 335.681 158.292 335.501C158.058 335.318 157.763 335.227 157.408 335.227C157.067 335.227 156.78 335.314 156.548 335.487C156.316 335.657 156.141 335.896 156.023 336.204C155.904 336.509 155.845 336.866 155.845 337.273Z" fill="black"/>
<path d="M214.106 332.727H215.157L217.629 338.764H217.714L220.186 332.727H221.237V340H220.413V334.474H220.342L218.069 340H217.274L215.001 334.474H214.93V340H214.106V332.727ZM224.494 340.128C224.149 340.128 223.835 340.063 223.553 339.933C223.271 339.8 223.048 339.609 222.882 339.361C222.716 339.11 222.633 338.807 222.633 338.452C222.633 338.139 222.695 337.886 222.818 337.692C222.941 337.495 223.106 337.341 223.312 337.23C223.518 337.119 223.745 337.036 223.994 336.982C224.244 336.925 224.497 336.88 224.75 336.847C225.081 336.804 225.35 336.772 225.556 336.751C225.764 336.727 225.916 336.688 226.011 336.634C226.108 336.579 226.156 336.484 226.156 336.349V336.321C226.156 335.971 226.06 335.698 225.869 335.504C225.679 335.31 225.391 335.213 225.006 335.213C224.605 335.213 224.292 335.301 224.065 335.476C223.837 335.651 223.677 335.838 223.585 336.037L222.79 335.753C222.932 335.421 223.121 335.163 223.358 334.979C223.597 334.792 223.857 334.661 224.139 334.588C224.423 334.512 224.703 334.474 224.977 334.474C225.152 334.474 225.354 334.496 225.581 334.538C225.811 334.579 226.032 334.663 226.245 334.79C226.46 334.918 226.639 335.111 226.781 335.369C226.923 335.627 226.994 335.973 226.994 336.406V340H226.156V339.261H226.114C226.057 339.38 225.962 339.506 225.829 339.641C225.697 339.776 225.521 339.891 225.3 339.986C225.08 340.08 224.811 340.128 224.494 340.128ZM224.622 339.375C224.954 339.375 225.233 339.31 225.46 339.18C225.69 339.049 225.863 338.881 225.979 338.675C226.097 338.469 226.156 338.253 226.156 338.026V337.259C226.121 337.301 226.043 337.34 225.922 337.376C225.803 337.409 225.666 337.438 225.51 337.464C225.356 337.488 225.206 337.509 225.059 337.528C224.914 337.545 224.797 337.559 224.707 337.571C224.489 337.599 224.286 337.646 224.097 337.71C223.909 337.771 223.758 337.865 223.642 337.99C223.528 338.113 223.472 338.281 223.472 338.494C223.472 338.786 223.579 339.006 223.795 339.155C224.012 339.302 224.288 339.375 224.622 339.375ZM228.524 340V334.545H229.334V335.369H229.39C229.49 335.099 229.67 334.88 229.93 334.712C230.191 334.544 230.484 334.46 230.811 334.46C230.872 334.46 230.949 334.461 231.042 334.464C231.134 334.466 231.204 334.47 231.251 334.474V335.327C231.223 335.32 231.158 335.309 231.056 335.295C230.956 335.278 230.851 335.27 230.74 335.27C230.475 335.27 230.238 335.326 230.03 335.437C229.824 335.546 229.66 335.697 229.54 335.891C229.421 336.083 229.362 336.302 229.362 336.548V340H228.524Z" fill="black"/>
<path d="M285.994 340H285.071L287.742 332.727H288.651L291.321 340H290.398L288.225 333.878H288.168L285.994 340ZM286.335 337.159H290.057V337.94H286.335V337.159ZM292.34 342.045V334.545H293.15V335.412H293.249C293.311 335.317 293.396 335.196 293.505 335.05C293.616 334.901 293.775 334.768 293.981 334.652C294.189 334.534 294.471 334.474 294.826 334.474C295.285 334.474 295.69 334.589 296.041 334.819C296.391 335.049 296.664 335.374 296.861 335.795C297.057 336.217 297.156 336.714 297.156 337.287C297.156 337.865 297.057 338.365 296.861 338.789C296.664 339.21 296.392 339.537 296.044 339.769C295.696 339.999 295.295 340.114 294.84 340.114C294.49 340.114 294.209 340.056 293.999 339.94C293.788 339.821 293.626 339.687 293.512 339.538C293.399 339.387 293.311 339.261 293.249 339.162H293.178V342.045H292.34ZM293.164 337.273C293.164 337.685 293.225 338.048 293.345 338.363C293.466 338.675 293.642 338.92 293.874 339.098C294.106 339.273 294.39 339.361 294.727 339.361C295.077 339.361 295.369 339.268 295.604 339.084C295.841 338.897 296.018 338.646 296.136 338.331C296.257 338.014 296.318 337.661 296.318 337.273C296.318 336.889 296.258 336.544 296.14 336.236C296.024 335.926 295.848 335.681 295.611 335.501C295.377 335.318 295.082 335.227 294.727 335.227C294.386 335.227 294.099 335.314 293.867 335.487C293.635 335.657 293.46 335.896 293.342 336.204C293.223 336.509 293.164 336.866 293.164 337.273ZM298.434 340V334.545H299.244V335.369H299.301C299.4 335.099 299.58 334.88 299.84 334.712C300.101 334.544 300.394 334.46 300.721 334.46C300.783 334.46 300.859 334.461 300.952 334.464C301.044 334.466 301.114 334.47 301.161 334.474V335.327C301.133 335.32 301.068 335.309 300.966 335.295C300.867 335.278 300.761 335.27 300.65 335.27C300.385 335.27 300.148 335.326 299.94 335.437C299.734 335.546 299.57 335.697 299.45 335.891C299.331 336.083 299.272 336.302 299.272 336.548V340H298.434Z" fill="black"/>
<path d="M356.28 332.727H357.331L359.803 338.764H359.888L362.36 332.727H363.411V340H362.587V334.474H362.516L360.243 340H359.448L357.175 334.474H357.104V340H356.28V332.727ZM366.668 340.128C366.322 340.128 366.009 340.063 365.727 339.933C365.445 339.8 365.222 339.609 365.056 339.361C364.89 339.11 364.807 338.807 364.807 338.452C364.807 338.139 364.869 337.886 364.992 337.692C365.115 337.495 365.28 337.341 365.486 337.23C365.691 337.119 365.919 337.036 366.167 336.982C366.418 336.925 366.67 336.88 366.924 336.847C367.255 336.804 367.524 336.772 367.73 336.751C367.938 336.727 368.09 336.688 368.184 336.634C368.281 336.579 368.33 336.484 368.33 336.349V336.321C368.33 335.971 368.234 335.698 368.042 335.504C367.853 335.31 367.565 335.213 367.179 335.213C366.779 335.213 366.466 335.301 366.238 335.476C366.011 335.651 365.851 335.838 365.759 336.037L364.964 335.753C365.106 335.421 365.295 335.163 365.532 334.979C365.771 334.792 366.031 334.661 366.313 334.588C366.597 334.512 366.876 334.474 367.151 334.474C367.326 334.474 367.527 334.496 367.755 334.538C367.984 334.579 368.206 334.663 368.419 334.79C368.634 334.918 368.813 335.111 368.955 335.369C369.097 335.627 369.168 335.973 369.168 336.406V340H368.33V339.261H368.287C368.231 339.38 368.136 339.506 368.003 339.641C367.871 339.776 367.694 339.891 367.474 339.986C367.254 340.08 366.985 340.128 366.668 340.128ZM366.796 339.375C367.127 339.375 367.407 339.31 367.634 339.18C367.864 339.049 368.036 338.881 368.152 338.675C368.271 338.469 368.33 338.253 368.33 338.026V337.259C368.294 337.301 368.216 337.34 368.096 337.376C367.977 337.409 367.84 337.438 367.684 337.464C367.53 337.488 367.379 337.509 367.233 337.528C367.088 337.545 366.971 337.559 366.881 337.571C366.663 337.599 366.46 337.646 366.27 337.71C366.083 337.771 365.932 337.865 365.816 337.99C365.702 338.113 365.645 338.281 365.645 338.494C365.645 338.786 365.753 339.006 365.968 339.155C366.186 339.302 366.462 339.375 366.796 339.375ZM370.698 340V334.545H371.536V340H370.698ZM371.124 333.636C370.96 333.636 370.82 333.581 370.701 333.469C370.585 333.358 370.527 333.224 370.527 333.068C370.527 332.912 370.585 332.778 370.701 332.667C370.82 332.556 370.96 332.5 371.124 332.5C371.287 332.5 371.427 332.556 371.543 332.667C371.661 332.778 371.72 332.912 371.72 333.068C371.72 333.224 371.661 333.358 371.543 333.469C371.427 333.581 371.287 333.636 371.124 333.636Z" fill="black"/>
<path d="M429.721 332.727H430.602V337.926C430.602 338.39 430.517 338.784 430.346 339.109C430.176 339.433 429.936 339.679 429.626 339.847C429.315 340.015 428.95 340.099 428.528 340.099C428.131 340.099 427.777 340.027 427.466 339.883C427.156 339.736 426.912 339.528 426.735 339.258C426.557 338.988 426.469 338.667 426.469 338.295H427.335C427.335 338.501 427.386 338.681 427.488 338.835C427.592 338.987 427.734 339.105 427.914 339.19C428.094 339.276 428.299 339.318 428.528 339.318C428.782 339.318 428.997 339.265 429.175 339.158C429.352 339.052 429.487 338.896 429.579 338.69C429.674 338.481 429.721 338.227 429.721 337.926V332.727ZM435.691 337.77V334.545H436.529V340H435.691V339.077H435.634C435.506 339.354 435.307 339.589 435.037 339.783C434.768 339.975 434.427 340.071 434.015 340.071C433.674 340.071 433.371 339.996 433.106 339.847C432.84 339.696 432.632 339.469 432.481 339.165C432.329 338.86 432.253 338.475 432.253 338.011V334.545H433.091V337.955C433.091 338.352 433.203 338.67 433.425 338.906C433.65 339.143 433.937 339.261 434.285 339.261C434.493 339.261 434.705 339.208 434.92 339.102C435.138 338.995 435.32 338.832 435.467 338.612C435.616 338.391 435.691 338.111 435.691 337.77ZM438.902 336.719V340H438.064V334.545H438.874V335.398H438.945C439.072 335.121 439.267 334.898 439.527 334.73C439.787 334.56 440.124 334.474 440.536 334.474C440.905 334.474 441.228 334.55 441.505 334.702C441.782 334.851 441.997 335.078 442.151 335.384C442.305 335.687 442.382 336.07 442.382 336.534V340H441.544V336.591C441.544 336.162 441.433 335.829 441.21 335.589C440.988 335.348 440.682 335.227 440.294 335.227C440.027 335.227 439.787 335.285 439.577 335.401C439.368 335.517 439.204 335.687 439.083 335.909C438.962 336.132 438.902 336.402 438.902 336.719Z" fill="black"/>
</g>
</g>
<g clip-path="url(#clip3_7_16659)">
<rect width="65" height="20" transform="translate(16.4766 376)" fill="white"/>
<rect width="16" height="16" transform="translate(16.4766 378)" fill="white"/>
<circle cx="24.4766" cy="386" r="4" fill="#7987FF"/>
<path d="M32.9206 385.812C32.9206 384.996 33.1086 384.264 33.4846 383.616C33.8686 382.968 34.3846 382.464 35.0326 382.104C35.6886 381.736 36.4046 381.552 37.1806 381.552C38.0686 381.552 38.8566 381.772 39.5446 382.212C40.2406 382.644 40.7446 383.26 41.0566 384.06H39.4126C39.1966 383.62 38.8966 383.292 38.5126 383.076C38.1286 382.86 37.6846 382.752 37.1806 382.752C36.6286 382.752 36.1366 382.876 35.7046 383.124C35.2726 383.372 34.9326 383.728 34.6846 384.192C34.4446 384.656 34.3246 385.196 34.3246 385.812C34.3246 386.428 34.4446 386.968 34.6846 387.432C34.9326 387.896 35.2726 388.256 35.7046 388.512C36.1366 388.76 36.6286 388.884 37.1806 388.884C37.6846 388.884 38.1286 388.776 38.5126 388.56C38.8966 388.344 39.1966 388.016 39.4126 387.576H41.0566C40.7446 388.376 40.2406 388.992 39.5446 389.424C38.8566 389.856 38.0686 390.072 37.1806 390.072C36.3966 390.072 35.6806 389.892 35.0326 389.532C34.3846 389.164 33.8686 388.656 33.4846 388.008C33.1086 387.36 32.9206 386.628 32.9206 385.812ZM45.5258 390.108C44.9018 390.108 44.3378 389.968 43.8338 389.688C43.3298 389.4 42.9338 389 42.6458 388.488C42.3578 387.968 42.2138 387.368 42.2138 386.688C42.2138 386.016 42.3618 385.42 42.6578 384.9C42.9538 384.38 43.3578 383.98 43.8698 383.7C44.3818 383.42 44.9538 383.28 45.5858 383.28C46.2178 383.28 46.7898 383.42 47.3018 383.7C47.8138 383.98 48.2178 384.38 48.5138 384.9C48.8098 385.42 48.9578 386.016 48.9578 386.688C48.9578 387.36 48.8058 387.956 48.5018 388.476C48.1978 388.996 47.7818 389.4 47.2538 389.688C46.7338 389.968 46.1578 390.108 45.5258 390.108ZM45.5258 388.92C45.8778 388.92 46.2058 388.836 46.5098 388.668C46.8218 388.5 47.0738 388.248 47.2658 387.912C47.4578 387.576 47.5538 387.168 47.5538 386.688C47.5538 386.208 47.4618 385.804 47.2778 385.476C47.0938 385.14 46.8498 384.888 46.5458 384.72C46.2418 384.552 45.9138 384.468 45.5618 384.468C45.2098 384.468 44.8818 384.552 44.5778 384.72C44.2818 384.888 44.0458 385.14 43.8698 385.476C43.6938 385.804 43.6058 386.208 43.6058 386.688C43.6058 387.4 43.7858 387.952 44.1458 388.344C44.5138 388.728 44.9738 388.92 45.5258 388.92ZM53.6462 383.28C54.1662 383.28 54.6302 383.388 55.0382 383.604C55.4542 383.82 55.7782 384.14 56.0102 384.564C56.2422 384.988 56.3582 385.5 56.3582 386.1V390H55.0022V386.304C55.0022 385.712 54.8542 385.26 54.5582 384.948C54.2622 384.628 53.8582 384.468 53.3462 384.468C52.8342 384.468 52.4262 384.628 52.1222 384.948C51.8262 385.26 51.6782 385.712 51.6782 386.304V390H50.3102V383.388H51.6782V384.144C51.9022 383.872 52.1862 383.66 52.5302 383.508C52.8822 383.356 53.2542 383.28 53.6462 383.28ZM59.6991 384.504V388.164C59.6991 388.412 59.7551 388.592 59.8671 388.704C59.9871 388.808 60.1871 388.86 60.4671 388.86H61.3071V390H60.2271C59.6111 390 59.1391 389.856 58.8111 389.568C58.4831 389.28 58.3191 388.812 58.3191 388.164V384.504H57.5391V383.388H58.3191V381.744H59.6991V383.388H61.3071V384.504H59.6991ZM68.628 386.532C68.628 386.78 68.612 387.004 68.58 387.204H63.528C63.568 387.732 63.764 388.156 64.116 388.476C64.468 388.796 64.9 388.956 65.412 388.956C66.148 388.956 66.668 388.648 66.972 388.032H68.448C68.248 388.64 67.884 389.14 67.356 389.532C66.836 389.916 66.188 390.108 65.412 390.108C64.78 390.108 64.212 389.968 63.708 389.688C63.212 389.4 62.82 389 62.532 388.488C62.252 387.968 62.112 387.368 62.112 386.688C62.112 386.008 62.248 385.412 62.52 384.9C62.8 384.38 63.188 383.98 63.684 383.7C64.188 383.42 64.764 383.28 65.412 383.28C66.036 383.28 66.592 383.416 67.08 383.688C67.568 383.96 67.948 384.344 68.22 384.84C68.492 385.328 68.628 385.892 68.628 386.532ZM67.2 386.1C67.192 385.596 67.012 385.192 66.66 384.888C66.308 384.584 65.872 384.432 65.352 384.432C64.88 384.432 64.476 384.584 64.14 384.888C63.804 385.184 63.604 385.588 63.54 386.1H67.2ZM73.3102 383.28C73.8302 383.28 74.2942 383.388 74.7022 383.604C75.1182 383.82 75.4422 384.14 75.6742 384.564C75.9062 384.988 76.0222 385.5 76.0222 386.1V390H74.6662V386.304C74.6662 385.712 74.5182 385.26 74.2222 384.948C73.9262 384.628 73.5222 384.468 73.0102 384.468C72.4982 384.468 72.0902 384.628 71.7862 384.948C71.4902 385.26 71.3422 385.712 71.3422 386.304V390H69.9742V383.388H71.3422V384.144C71.5662 383.872 71.8502 383.66 72.1942 383.508C72.5462 383.356 72.9182 383.28 73.3102 383.28ZM79.3632 384.504V388.164C79.3632 388.412 79.4192 388.592 79.5312 388.704C79.6512 388.808 79.8512 388.86 80.1312 388.86H80.9712V390H79.8912C79.2752 390 78.8032 389.856 78.4752 389.568C78.1472 389.28 77.9832 388.812 77.9832 388.164V384.504H77.2032V383.388H77.9832V381.744H79.3632V383.388H80.9712V384.504H79.3632Z" fill="black"/>
</g>
<g clip-path="url(#clip4_7_16659)">
<rect width="65" height="20" transform="translate(89.4766 376)" fill="white"/>
<rect width="16" height="16" transform="translate(89.4766 378)" fill="white"/>
<circle cx="97.4766" cy="386" r="4" fill="#E697FF"/>
<path d="M105.921 385.812C105.921 384.996 106.109 384.264 106.485 383.616C106.869 382.968 107.385 382.464 108.033 382.104C108.689 381.736 109.405 381.552 110.181 381.552C111.069 381.552 111.857 381.772 112.545 382.212C113.241 382.644 113.745 383.26 114.057 384.06H112.413C112.197 383.62 111.897 383.292 111.513 383.076C111.129 382.86 110.685 382.752 110.181 382.752C109.629 382.752 109.137 382.876 108.705 383.124C108.273 383.372 107.933 383.728 107.685 384.192C107.445 384.656 107.325 385.196 107.325 385.812C107.325 386.428 107.445 386.968 107.685 387.432C107.933 387.896 108.273 388.256 108.705 388.512C109.137 388.76 109.629 388.884 110.181 388.884C110.685 388.884 111.129 388.776 111.513 388.56C111.897 388.344 112.197 388.016 112.413 387.576H114.057C113.745 388.376 113.241 388.992 112.545 389.424C111.857 389.856 111.069 390.072 110.181 390.072C109.397 390.072 108.681 389.892 108.033 389.532C107.385 389.164 106.869 388.656 106.485 388.008C106.109 387.36 105.921 386.628 105.921 385.812ZM118.526 390.108C117.902 390.108 117.338 389.968 116.834 389.688C116.33 389.4 115.934 389 115.646 388.488C115.358 387.968 115.214 387.368 115.214 386.688C115.214 386.016 115.362 385.42 115.658 384.9C115.954 384.38 116.358 383.98 116.87 383.7C117.382 383.42 117.954 383.28 118.586 383.28C119.218 383.28 119.79 383.42 120.302 383.7C120.814 383.98 121.218 384.38 121.514 384.9C121.81 385.42 121.958 386.016 121.958 386.688C121.958 387.36 121.806 387.956 121.502 388.476C121.198 388.996 120.782 389.4 120.254 389.688C119.734 389.968 119.158 390.108 118.526 390.108ZM118.526 388.92C118.878 388.92 119.206 388.836 119.51 388.668C119.822 388.5 120.074 388.248 120.266 387.912C120.458 387.576 120.554 387.168 120.554 386.688C120.554 386.208 120.462 385.804 120.278 385.476C120.094 385.14 119.85 384.888 119.546 384.72C119.242 384.552 118.914 384.468 118.562 384.468C118.21 384.468 117.882 384.552 117.578 384.72C117.282 384.888 117.046 385.14 116.87 385.476C116.694 385.804 116.606 386.208 116.606 386.688C116.606 387.4 116.786 387.952 117.146 388.344C117.514 388.728 117.974 388.92 118.526 388.92ZM126.646 383.28C127.166 383.28 127.63 383.388 128.038 383.604C128.454 383.82 128.778 384.14 129.01 384.564C129.242 384.988 129.358 385.5 129.358 386.1V390H128.002V386.304C128.002 385.712 127.854 385.26 127.558 384.948C127.262 384.628 126.858 384.468 126.346 384.468C125.834 384.468 125.426 384.628 125.122 384.948C124.826 385.26 124.678 385.712 124.678 386.304V390H123.31V383.388H124.678V384.144C124.902 383.872 125.186 383.66 125.53 383.508C125.882 383.356 126.254 383.28 126.646 383.28ZM132.699 384.504V388.164C132.699 388.412 132.755 388.592 132.867 388.704C132.987 388.808 133.187 388.86 133.467 388.86H134.307V390H133.227C132.611 390 132.139 389.856 131.811 389.568C131.483 389.28 131.319 388.812 131.319 388.164V384.504H130.539V383.388H131.319V381.744H132.699V383.388H134.307V384.504H132.699ZM141.628 386.532C141.628 386.78 141.612 387.004 141.58 387.204H136.528C136.568 387.732 136.764 388.156 137.116 388.476C137.468 388.796 137.9 388.956 138.412 388.956C139.148 388.956 139.668 388.648 139.972 388.032H141.448C141.248 388.64 140.884 389.14 140.356 389.532C139.836 389.916 139.188 390.108 138.412 390.108C137.78 390.108 137.212 389.968 136.708 389.688C136.212 389.4 135.82 389 135.532 388.488C135.252 387.968 135.112 387.368 135.112 386.688C135.112 386.008 135.248 385.412 135.52 384.9C135.8 384.38 136.188 383.98 136.684 383.7C137.188 383.42 137.764 383.28 138.412 383.28C139.036 383.28 139.592 383.416 140.08 383.688C140.568 383.96 140.948 384.344 141.22 384.84C141.492 385.328 141.628 385.892 141.628 386.532ZM140.2 386.1C140.192 385.596 140.012 385.192 139.66 384.888C139.308 384.584 138.872 384.432 138.352 384.432C137.88 384.432 137.476 384.584 137.14 384.888C136.804 385.184 136.604 385.588 136.54 386.1H140.2ZM146.31 383.28C146.83 383.28 147.294 383.388 147.702 383.604C148.118 383.82 148.442 384.14 148.674 384.564C148.906 384.988 149.022 385.5 149.022 386.1V390H147.666V386.304C147.666 385.712 147.518 385.26 147.222 384.948C146.926 384.628 146.522 384.468 146.01 384.468C145.498 384.468 145.09 384.628 144.786 384.948C144.49 385.26 144.342 385.712 144.342 386.304V390H142.974V383.388H144.342V384.144C144.566 383.872 144.85 383.66 145.194 383.508C145.546 383.356 145.918 383.28 146.31 383.28ZM152.363 384.504V388.164C152.363 388.412 152.419 388.592 152.531 388.704C152.651 388.808 152.851 388.86 153.131 388.86H153.971V390H152.891C152.275 390 151.803 389.856 151.475 389.568C151.147 389.28 150.983 388.812 150.983 388.164V384.504H150.203V383.388H150.983V381.744H152.363V383.388H153.971V384.504H152.363Z" fill="black"/>
</g>
<g clip-path="url(#clip5_7_16659)">
<rect width="65" height="20" transform="translate(162.477 376)" fill="white"/>
<rect width="16" height="16" transform="translate(162.477 378)" fill="white"/>
<circle cx="170.477" cy="386" r="4" fill="#FFA5CB"/>
<path d="M178.921 385.812C178.921 384.996 179.109 384.264 179.485 383.616C179.869 382.968 180.385 382.464 181.033 382.104C181.689 381.736 182.405 381.552 183.181 381.552C184.069 381.552 184.857 381.772 185.545 382.212C186.241 382.644 186.745 383.26 187.057 384.06H185.413C185.197 383.62 184.897 383.292 184.513 383.076C184.129 382.86 183.685 382.752 183.181 382.752C182.629 382.752 182.137 382.876 181.705 383.124C181.273 383.372 180.933 383.728 180.685 384.192C180.445 384.656 180.325 385.196 180.325 385.812C180.325 386.428 180.445 386.968 180.685 387.432C180.933 387.896 181.273 388.256 181.705 388.512C182.137 388.76 182.629 388.884 183.181 388.884C183.685 388.884 184.129 388.776 184.513 388.56C184.897 388.344 185.197 388.016 185.413 387.576H187.057C186.745 388.376 186.241 388.992 185.545 389.424C184.857 389.856 184.069 390.072 183.181 390.072C182.397 390.072 181.681 389.892 181.033 389.532C180.385 389.164 179.869 388.656 179.485 388.008C179.109 387.36 178.921 386.628 178.921 385.812ZM191.526 390.108C190.902 390.108 190.338 389.968 189.834 389.688C189.33 389.4 188.934 389 188.646 388.488C188.358 387.968 188.214 387.368 188.214 386.688C188.214 386.016 188.362 385.42 188.658 384.9C188.954 384.38 189.358 383.98 189.87 383.7C190.382 383.42 190.954 383.28 191.586 383.28C192.218 383.28 192.79 383.42 193.302 383.7C193.814 383.98 194.218 384.38 194.514 384.9C194.81 385.42 194.958 386.016 194.958 386.688C194.958 387.36 194.806 387.956 194.502 388.476C194.198 388.996 193.782 389.4 193.254 389.688C192.734 389.968 192.158 390.108 191.526 390.108ZM191.526 388.92C191.878 388.92 192.206 388.836 192.51 388.668C192.822 388.5 193.074 388.248 193.266 387.912C193.458 387.576 193.554 387.168 193.554 386.688C193.554 386.208 193.462 385.804 193.278 385.476C193.094 385.14 192.85 384.888 192.546 384.72C192.242 384.552 191.914 384.468 191.562 384.468C191.21 384.468 190.882 384.552 190.578 384.72C190.282 384.888 190.046 385.14 189.87 385.476C189.694 385.804 189.606 386.208 189.606 386.688C189.606 387.4 189.786 387.952 190.146 388.344C190.514 388.728 190.974 388.92 191.526 388.92ZM199.646 383.28C200.166 383.28 200.63 383.388 201.038 383.604C201.454 383.82 201.778 384.14 202.01 384.564C202.242 384.988 202.358 385.5 202.358 386.1V390H201.002V386.304C201.002 385.712 200.854 385.26 200.558 384.948C200.262 384.628 199.858 384.468 199.346 384.468C198.834 384.468 198.426 384.628 198.122 384.948C197.826 385.26 197.678 385.712 197.678 386.304V390H196.31V383.388H197.678V384.144C197.902 383.872 198.186 383.66 198.53 383.508C198.882 383.356 199.254 383.28 199.646 383.28ZM205.699 384.504V388.164C205.699 388.412 205.755 388.592 205.867 388.704C205.987 388.808 206.187 388.86 206.467 388.86H207.307V390H206.227C205.611 390 205.139 389.856 204.811 389.568C204.483 389.28 204.319 388.812 204.319 388.164V384.504H203.539V383.388H204.319V381.744H205.699V383.388H207.307V384.504H205.699ZM214.628 386.532C214.628 386.78 214.612 387.004 214.58 387.204H209.528C209.568 387.732 209.764 388.156 210.116 388.476C210.468 388.796 210.9 388.956 211.412 388.956C212.148 388.956 212.668 388.648 212.972 388.032H214.448C214.248 388.64 213.884 389.14 213.356 389.532C212.836 389.916 212.188 390.108 211.412 390.108C210.78 390.108 210.212 389.968 209.708 389.688C209.212 389.4 208.82 389 208.532 388.488C208.252 387.968 208.112 387.368 208.112 386.688C208.112 386.008 208.248 385.412 208.52 384.9C208.8 384.38 209.188 383.98 209.684 383.7C210.188 383.42 210.764 383.28 211.412 383.28C212.036 383.28 212.592 383.416 213.08 383.688C213.568 383.96 213.948 384.344 214.22 384.84C214.492 385.328 214.628 385.892 214.628 386.532ZM213.2 386.1C213.192 385.596 213.012 385.192 212.66 384.888C212.308 384.584 211.872 384.432 211.352 384.432C210.88 384.432 210.476 384.584 210.14 384.888C209.804 385.184 209.604 385.588 209.54 386.1H213.2ZM219.31 383.28C219.83 383.28 220.294 383.388 220.702 383.604C221.118 383.82 221.442 384.14 221.674 384.564C221.906 384.988 222.022 385.5 222.022 386.1V390H220.666V386.304C220.666 385.712 220.518 385.26 220.222 384.948C219.926 384.628 219.522 384.468 219.01 384.468C218.498 384.468 218.09 384.628 217.786 384.948C217.49 385.26 217.342 385.712 217.342 386.304V390H215.974V383.388H217.342V384.144C217.566 383.872 217.85 383.66 218.194 383.508C218.546 383.356 218.918 383.28 219.31 383.28ZM225.363 384.504V388.164C225.363 388.412 225.419 388.592 225.531 388.704C225.651 388.808 225.851 388.86 226.131 388.86H226.971V390H225.891C225.275 390 224.803 389.856 224.475 389.568C224.147 389.28 223.983 388.812 223.983 388.164V384.504H223.203V383.388H223.983V381.744H225.363V383.388H226.971V384.504H225.363Z" fill="black"/>
</g>
</g>
<defs>
<clipPath id="clip0_7_16659">
<rect width="453.5" height="347" fill="white" transform="translate(16.4766 57)"/>
</clipPath>
<clipPath id="clip1_7_16659">
<rect width="453.5" height="285" fill="white" transform="translate(16.4766 57)"/>
</clipPath>
<clipPath id="clip2_7_16659">
<rect width="424.5" height="285" fill="white" transform="translate(45.4766 57)"/>
</clipPath>
<clipPath id="clip3_7_16659">
<rect width="65" height="20" fill="white" transform="translate(16.4766 376)"/>
</clipPath>
<clipPath id="clip4_7_16659">
<rect width="65" height="20" fill="white" transform="translate(89.4766 376)"/>
</clipPath>
<clipPath id="clip5_7_16659">
<rect width="65" height="20" fill="white" transform="translate(162.477 376)"/>
</clipPath>
</defs>
</svg>
