<svg width="186" height="137" viewBox="0 0 186 137" fill="none" xmlns="http://www.w3.org/2000/svg">
<rect x="29.6211" y="23.1204" width="123.915" height="90.3301" stroke="#C6C6C6" stroke-width="0.96" stroke-linejoin="round" stroke-dasharray="1.44 1.44"/>
<rect x="0.564941" y="0.386719" width="129.137" height="96.8214" fill="#F1F1F1"/>
<rect x="3.72754" y="14.5181" width="122.812" height="80.5973" fill="white"/>
<rect x="13.7417" y="24.9836" width="101.728" height="58.6162" rx="3.84" fill="#F1F1F1"/>
<rect x="118.105" y="6.6665" width="7.90632" height="2.09344" rx="1.04672" fill="#C4C4C4"/>
<rect x="21.3633" y="43.5337" width="37.9655" height="2.2709" rx="1.13545" fill="white"/>
<rect x="21.3633" y="66.2429" width="37.9655" height="2.2709" rx="1.13545" fill="white"/>
<rect x="67.1055" y="43.5337" width="37.9655" height="2.2709" rx="1.13545" fill="#3F3DB8"/>
<rect x="21.3633" y="39.9009" width="37.9655" height="2.2709" rx="1.13545" fill="white"/>
<rect x="21.3633" y="62.6101" width="37.9655" height="2.2709" rx="1.13545" fill="#E48742"/>
<rect x="67.1055" y="39.9009" width="37.9655" height="2.2709" rx="1.13545" fill="white"/>
<rect x="21.3633" y="47.1665" width="37.9655" height="2.2709" rx="1.13545" fill="white"/>
<rect x="21.3633" y="69.8757" width="37.9655" height="2.2709" rx="1.13545" fill="#E48742"/>
<rect x="67.1055" y="47.1665" width="37.9655" height="2.2709" rx="1.13545" fill="white"/>
<rect x="21.3633" y="50.8008" width="21.4985" height="2.2709" rx="1.13545" fill="#3F3DB8"/>
<rect x="21.3633" y="73.5103" width="21.4985" height="2.2709" rx="1.13545" fill="white"/>
<rect x="67.1055" y="50.8008" width="21.4985" height="2.2709" rx="1.13545" fill="white"/>
<ellipse cx="5.04526" cy="7.45146" rx="1.31772" ry="1.3084" fill="#C4C4C4"/>
<ellipse cx="8.73569" cy="7.45146" rx="1.31772" ry="1.3084" fill="#C4C4C4"/>
<ellipse cx="12.4232" cy="7.45146" rx="1.31772" ry="1.3084" fill="#C4C4C4"/>
<g filter="url(#filter0_d_349_299232)">
<rect x="77.6265" y="57.6133" width="95.7392" height="64" rx="4" fill="white"/>
</g>
<line x1="97.6572" y1="89.8879" x2="154.931" y2="89.8879" stroke="#F1F1F1" stroke-width="0.48"/>
<line x1="96.8384" y1="100.812" x2="154.112" y2="100.812" stroke="#F1F1F1" stroke-width="0.48"/>
<line x1="96.8384" y1="84.427" x2="154.112" y2="84.427" stroke="#F1F1F1" stroke-width="0.48"/>
<line x1="96.8384" y1="95.3506" x2="154.112" y2="95.3506" stroke="#F1F1F1" stroke-width="0.48"/>
<line x1="96.8384" y1="78.9661" x2="154.112" y2="78.9661" stroke="#F1F1F1" stroke-width="0.48"/>
<line x1="101.171" y1="73.7468" x2="101.171" y2="104.123" stroke="#F1F1F1" stroke-width="0.48"/>
<line x1="120.806" y1="73.7468" x2="120.806" y2="104.123" stroke="#F1F1F1" stroke-width="0.48"/>
<line x1="140.443" y1="73.7468" x2="140.443" y2="104.123" stroke="#F1F1F1" stroke-width="0.48"/>
<line x1="107.716" y1="73.4045" x2="107.716" y2="103.781" stroke="#F1F1F1" stroke-width="0.48"/>
<line x1="127.352" y1="73.4045" x2="127.352" y2="103.781" stroke="#F1F1F1" stroke-width="0.48"/>
<line x1="146.988" y1="73.4045" x2="146.988" y2="103.781" stroke="#F1F1F1" stroke-width="0.48"/>
<line x1="114.261" y1="73.4045" x2="114.261" y2="103.781" stroke="#F1F1F1" stroke-width="0.48"/>
<line x1="133.897" y1="73.4045" x2="133.897" y2="103.781" stroke="#F1F1F1" stroke-width="0.48"/>
<line x1="153.534" y1="73.4045" x2="153.534" y2="103.781" stroke="#F1F1F1" stroke-width="0.48"/>
<rect x="89.52" y="74.3186" width="2.74449" height="1.35464" rx="0.67732" fill="#E0DBFF"/>
<rect x="89.978" y="101.411" width="2.74449" height="1.35464" rx="0.67732" fill="#E0DBFF"/>
<rect x="89.52" y="87.864" width="2.74449" height="1.35464" rx="0.67732" fill="#E0DBFF"/>
<rect x="95.4668" y="112.248" width="2.70928" height="1.37225" rx="0.686124" transform="rotate(-90 95.4668 112.248)" fill="#E0DBFF"/>
<rect x="109.189" y="112.248" width="2.70928" height="1.37225" rx="0.686124" transform="rotate(-90 109.189 112.248)" fill="#E0DBFF"/>
<rect x="122.911" y="112.248" width="2.70928" height="1.37225" rx="0.686124" transform="rotate(-90 122.911 112.248)" fill="#E0DBFF"/>
<rect x="136.634" y="112.248" width="2.70928" height="1.37225" rx="0.686124" transform="rotate(-90 136.634 112.248)" fill="#E0DBFF"/>
<rect x="150.356" y="112.248" width="2.70928" height="1.37225" rx="0.686124" transform="rotate(-90 150.356 112.248)" fill="#E0DBFF"/>
<rect x="89.52" y="81.0935" width="2.74449" height="1.35464" rx="0.67732" fill="#E0DBFF"/>
<rect x="89.978" y="108.186" width="2.74449" height="1.35464" rx="0.67732" fill="#E0DBFF"/>
<rect x="89.52" y="94.6389" width="2.74449" height="1.35464" rx="0.67732" fill="#E0DBFF"/>
<rect x="102.328" y="112.248" width="2.70928" height="1.37225" rx="0.686124" transform="rotate(-90 102.328 112.248)" fill="#E0DBFF"/>
<rect x="116.05" y="112.248" width="2.70928" height="1.37225" rx="0.686124" transform="rotate(-90 116.05 112.248)" fill="#E0DBFF"/>
<rect x="129.773" y="112.248" width="2.70928" height="1.37225" rx="0.686124" transform="rotate(-90 129.773 112.248)" fill="#E0DBFF"/>
<rect x="143.495" y="112.248" width="2.70928" height="1.37225" rx="0.686124" transform="rotate(-90 143.495 112.248)" fill="#E0DBFF"/>
<rect x="157.218" y="112.248" width="2.70928" height="1.37225" rx="0.686124" transform="rotate(-90 157.218 112.248)" fill="#E0DBFF"/>
<path d="M127.414 93.0588C110.59 87.0983 99.7143 99.4557 96.3794 106.379H155.386V71.1587C153.072 80.9422 144.238 99.0192 127.414 93.0588Z" fill="#3B3A84"/>
<path d="M91.8062 70.707V110.895H160.19" stroke="#E0DBFF" stroke-width="1.44"/>
<defs>
<filter id="filter0_d_349_299232" x="69.9465" y="52.3333" width="115.899" height="84.16" filterUnits="userSpaceOnUse" color-interpolation-filters="sRGB">
<feFlood flood-opacity="0" result="BackgroundImageFix"/>
<feColorMatrix in="SourceAlpha" type="matrix" values="0 0 0 0 0 0 0 0 0 0 0 0 0 0 0 0 0 0 127 0" result="hardAlpha"/>
<feOffset dx="2.4" dy="4.8"/>
<feGaussianBlur stdDeviation="5.04"/>
<feComposite in2="hardAlpha" operator="out"/>
<feColorMatrix type="matrix" values="0 0 0 0 0.700272 0 0 0 0 0.700272 0 0 0 0 0.700272 0 0 0 0.25 0"/>
<feBlend mode="normal" in2="BackgroundImageFix" result="effect1_dropShadow_349_299232"/>
<feBlend mode="normal" in="SourceGraphic" in2="effect1_dropShadow_349_299232" result="shape"/>
</filter>
</defs>
</svg>
